<svg width="22" height="22" viewBox="0 0 22 22" fill="none" xmlns="http://www.w3.org/2000/svg">
<path d="M13.2928 10.7623L21.0006 3.07251C21.3381 2.73498 21.5277 2.27718 21.5277 1.79983C21.5277 1.32249 21.3381 0.864694 21.0006 0.527159C20.663 0.189625 20.2052 0 19.7279 0C19.2505 0 18.7928 0.189625 18.4552 0.527159L10.7654 8.23491L3.07557 0.527159C2.73803 0.189625 2.28024 -3.5565e-09 1.80289 0C1.32555 3.5565e-09 0.867753 0.189625 0.530218 0.527159C0.192684 0.864694 0.00305908 1.32249 0.00305908 1.79983C0.00305908 2.27718 0.192684 2.73498 0.530218 3.07251L8.23797 10.7623L0.530218 18.4522C0.36221 18.6188 0.228859 18.817 0.137856 19.0355C0.0468532 19.2539 0 19.4882 0 19.7248C0 19.9615 0.0468532 20.1958 0.137856 20.4142C0.228859 20.6326 0.36221 20.8309 0.530218 20.9975C0.696855 21.1655 0.895107 21.2989 1.11354 21.3899C1.33197 21.4809 1.56626 21.5277 1.80289 21.5277C2.03952 21.5277 2.27381 21.4809 2.49225 21.3899C2.71068 21.2989 2.90893 21.1655 3.07557 20.9975L10.7654 13.2898L18.4552 20.9975C18.6219 21.1655 18.8201 21.2989 19.0385 21.3899C19.257 21.4809 19.4913 21.5277 19.7279 21.5277C19.9645 21.5277 20.1988 21.4809 20.4172 21.3899C20.6357 21.2989 20.8339 21.1655 21.0006 20.9975C21.1686 20.8309 21.3019 20.6326 21.3929 20.4142C21.4839 20.1958 21.5308 19.9615 21.5308 19.7248C21.5308 19.4882 21.4839 19.2539 21.3929 19.0355C21.3019 18.817 21.1686 18.6188 21.0006 18.4522L13.2928 10.7623Z" fill="#898989"/>
</svg>
