<svg width="256" height="844" viewBox="0 0 256 844" fill="none" xmlns="http://www.w3.org/2000/svg">
<path d="M75.2481 21.4021C64.0391 22.5739 53.4872 20.0272 43.7465 13.7961C34.9419 8.15093 28.7524 -0.562777 25.3642 -12.1031C21.6084 -24.8517 21.2681 -36.3787 24.3165 -47.325C28.6858 -63.0445 39.2525 -73.6305 55.7053 -78.789C65.8008 -81.9558 74.815 -82.3853 83.2494 -80.0898C90.4414 -78.137 95.9464 -74.7208 100.099 -69.6249C100.122 -69.5971 100.156 -69.5605 100.189 -69.5338C100.156 -69.9426 100.114 -70.3404 100.084 -70.7293C99.94 -72.3934 99.8191 -73.8387 99.539 -75.2673C98.9445 -78.2617 100.223 -80.4565 101.396 -82.027C104.184 -85.757 108.773 -87.9259 113.648 -87.8423C118.513 -87.7577 122.817 -85.5432 125.443 -81.7758C126.011 -80.9604 126.38 -80.0237 126.466 -79.1982C128.879 -56.4055 131.263 -33.5998 133.646 -10.804L134.312 -4.4387C134.325 -4.30941 134.329 -4.17907 134.321 -3.96709L134.321 -3.57504C134.323 -3.3641 134.192 -3.17943 134.008 -3.10994C133.815 -3.02948 133.598 -3.08721 133.462 -3.23387L133.1 -3.61832C132.885 -3.84721 132.705 -4.02949 132.543 -4.23375C129.341 -8.22245 124.407 -10.1197 119.344 -9.30894C114.369 -8.51744 110.347 -5.25154 108.565 -0.560849C104.892 9.12352 97.3228 15.7765 86.0573 19.1964C82.3915 20.2934 78.7888 21.032 75.2481 21.4021ZM67.4641 -80.2796C63.804 -79.897 59.9877 -79.0858 56.0061 -77.8351C39.8941 -72.7826 29.5543 -62.4314 25.2799 -47.0537C22.2824 -36.2937 22.6338 -24.9488 26.3301 -12.385C29.7 -0.923251 35.5842 7.36992 44.292 12.9548C56.8359 20.9942 70.7964 22.7724 85.7654 18.2315C96.8749 14.8581 104.032 8.59005 107.633 -0.915884C109.541 -5.94148 113.86 -9.4495 119.19 -10.2983C124.581 -11.1534 129.838 -9.14907 133.274 -4.93356L132.672 -10.6922C130.289 -33.488 127.915 -56.2947 125.493 -79.0864C125.423 -79.7527 125.111 -80.5245 124.638 -81.199C122.191 -84.7035 118.185 -86.7582 113.653 -86.8374C109.08 -86.9124 104.807 -84.8872 102.214 -81.4187C100.626 -79.2922 100.119 -77.5097 100.535 -75.4519C100.831 -73.9646 100.962 -72.4298 101.101 -70.8055C101.162 -70.0376 101.236 -69.231 101.325 -68.3756C101.347 -68.1668 101.236 -67.9742 101.056 -67.8749C100.875 -67.7756 100.65 -67.8124 100.495 -67.947C100.251 -68.1728 100.053 -68.3331 99.9089 -68.4588C99.6442 -68.6825 99.4894 -68.8172 99.3513 -68.9837C95.3381 -73.9031 89.9848 -77.2145 83.01 -79.1096C78.0625 -80.4625 72.9243 -80.8504 67.4641 -80.2796ZM79.2517 -1.08599C77.8394 -0.938353 76.3868 -0.887056 74.8951 -0.922154C58.3395 -1.36327 47.4357 -12.4698 46.427 -29.9094C45.4898 -46.2807 55.9718 -58.4465 72.5017 -60.1744C72.6708 -60.1921 72.8498 -60.2108 73.0189 -60.2285C90.7224 -62.0792 101.942 -49.0148 103.908 -35.0134C104.771 -28.8698 104.099 -23.0886 101.933 -17.835C97.9713 -8.22093 89.655 -2.17351 79.2517 -1.08599ZM72.6156 -59.1809C56.6426 -57.5111 46.5279 -45.7759 47.4268 -29.9637C48.4132 -12.8334 58.6893 -2.34496 74.9215 -1.9203C86.8993 -1.60391 96.6592 -7.69164 101.008 -18.2209C103.143 -23.3808 103.761 -28.8245 102.916 -34.8795C101.02 -48.4057 90.1988 -61.029 73.1218 -59.2439C72.9637 -59.2173 72.7946 -59.1996 72.6156 -59.1809C72.6256 -59.1819 72.6256 -59.1819 72.6156 -59.1809Z" fill="#9C005D" fill-opacity="0.2"/>
<path d="M124.523 27.2508L124.513 27.2519L123.736 27.3131C123.565 27.3208 123.397 27.2479 123.303 27.117L116.293 17.8657C116.141 17.6604 116.161 17.3767 116.354 17.1957C119.928 13.8761 125.55 13.5096 129.446 16.3399C129.641 16.4803 129.708 16.7348 129.601 16.9572L124.947 26.9753C124.852 27.126 124.692 27.2331 124.523 27.2508ZM123.921 26.2983L124.141 26.2854L128.501 16.9213C125.133 14.7095 120.488 15.004 117.355 17.634L123.921 26.2983Z" fill="#9C005D" fill-opacity="0.2"/>
<path d="M119.955 164.369C116.623 164.717 113.125 163.283 109.113 160.113C106.23 157.83 103.365 155.526 100.501 153.231C98.0865 151.292 95.6707 149.342 93.247 147.414C93.1152 147.307 92.8383 147.255 92.426 147.158C92.1889 147.102 91.9011 147.042 91.5703 146.956C91.1219 147.475 90.6714 147.975 90.2408 148.472C89.1915 149.688 88.1946 150.828 87.1459 151.953C83.8075 155.509 79.5273 157.173 75.3959 156.509C71.5204 155.889 68.3587 153.344 66.4809 149.327C55.2503 125.284 45.654 103.987 37.1302 84.1956C35.0718 79.4137 35.5491 74.4572 38.399 70.9419C41.1956 67.4924 45.8388 66.0317 50.8107 67.0403C71.9508 71.3256 94.3429 76.3346 121.279 82.779C125.27 83.7392 128.348 86.3434 129.699 89.9424C131.171 93.8204 130.462 98.3889 127.809 102.155C126.855 103.512 125.6 104.588 123.864 106.066C123.052 106.765 122.138 107.544 121.12 108.475C123.319 110.085 125.407 111.596 127.418 113.035C131.876 116.249 136.084 119.278 140.036 122.454C147.663 128.574 148.322 134.779 142.162 142.602C138.035 147.85 133.885 152.969 129.828 157.827C126.499 161.855 123.316 164.017 119.955 164.369ZM91.2121 145.837L91.5119 145.916C91.9672 146.039 92.3278 146.122 92.6156 146.183C93.1714 146.306 93.5409 146.378 93.8485 146.627C96.2821 148.554 98.6978 150.504 101.113 152.443C103.978 154.748 106.832 157.044 109.715 159.326C117.332 165.347 122.759 164.749 129.058 157.194C133.106 152.346 137.246 147.228 141.374 141.991C147.179 134.617 146.592 129.008 139.404 123.244C135.465 120.086 131.463 117.197 126.821 113.861C124.667 112.307 122.416 110.682 120.031 108.93L119.541 108.569L119.981 108.162C121.2 107.029 122.261 106.123 123.203 105.321C124.882 103.879 126.101 102.846 126.975 101.589C129.435 98.094 130.09 93.8731 128.742 90.3039C127.504 87.0248 124.69 84.6344 121.02 83.7613C94.0936 77.3159 71.7124 72.3157 50.5823 68.0294C45.9799 67.0928 41.7052 68.4245 39.1492 71.5773C36.5298 74.7971 36.1124 79.3652 38.0239 83.8005C46.5358 103.573 56.1321 124.87 67.3616 148.903C69.0857 152.604 71.9859 154.955 75.5238 155.52C79.3166 156.119 83.2769 154.569 86.3795 151.259C87.4104 150.155 88.4073 149.016 89.4477 147.811C89.9407 147.237 90.4525 146.65 90.9832 146.052L91.2121 145.837ZM117.788 146.437L90.8625 123.16L78.2959 137.314L54.1956 83.8394L112.198 96.8092L99.471 109.712L128.911 132.515L117.788 146.437ZM90.7667 121.763L117.649 145.004L127.491 132.684L97.964 109.82L110.219 97.3982L55.9224 85.2576L78.5694 135.505L90.7667 121.763Z" fill="#9C005D" fill-opacity="0.2"/>
<path d="M72.9035 286.654C70.984 286.854 68.4771 285.668 67.1421 284.632C58.1662 277.637 49.2136 270.288 40.8092 263.374C36.4407 259.769 36.0765 255.996 39.6862 251.476C46.2998 243.184 53.1842 234.692 60.7234 225.539C63.9348 221.634 68.453 220.9 71.9653 223.72C75.5204 226.566 75.7867 231.133 72.6423 235.101C68.6884 240.079 64.7258 244.877 60.5206 249.952C58.8955 251.912 57.2626 253.892 55.6218 255.894C57.5542 257.451 59.4725 258.97 61.3688 260.471C66.7303 264.726 71.7952 268.742 76.6479 273.131C78.5582 274.862 79.8509 278.668 79.4099 281.278C79.0241 283.55 75.7426 285.824 73.6144 286.529C73.3788 286.584 73.1522 286.628 72.9035 286.654ZM66.7153 223.032C64.8654 223.225 63.0352 224.281 61.4825 226.163C53.9532 235.316 47.0678 243.797 40.464 252.089C37.2374 256.136 37.5365 259.383 41.4416 262.594C49.836 269.509 58.7875 276.848 67.7524 283.834C69.2951 285.03 71.8906 286.005 73.2806 285.548C75.4188 284.842 78.1249 282.739 78.404 281.081C78.7888 278.799 77.6141 275.352 75.9585 273.846C71.1279 269.475 66.0739 265.469 60.7245 261.232C58.6963 259.624 56.6462 257.998 54.5819 256.334L54.1865 256.013L54.5081 255.628C56.2558 253.495 58.0066 251.391 59.7385 249.3C63.9338 244.226 67.8974 239.438 71.8424 234.471C74.6238 230.973 74.4157 226.963 71.3319 224.49C69.9048 223.342 68.3066 222.866 66.7153 223.032Z" fill="#9C005D" fill-opacity="0.2"/>
<path d="M145.867 279.227C144.027 279.42 142.216 278.835 140.599 277.506C136.972 274.547 136.855 270.065 140.301 265.803C144.137 261.049 148.03 256.348 152.134 251.365C153.811 249.329 155.526 247.26 157.292 245.114C155.189 243.464 153.13 241.85 151.093 240.253C146.087 236.322 141.366 232.613 136.606 228.817C132.26 225.34 131.351 221.061 134.192 217.366C135.458 215.725 137.113 214.728 138.971 214.513C141.288 214.261 143.801 215.125 146.239 217.092C155.316 224.388 163.458 230.997 171.143 237.282C176.101 241.338 176.514 245.186 172.527 250.138C165.585 258.756 158.701 267.248 152.061 275.382C150.349 277.472 148.394 278.782 146.392 279.152C146.234 279.179 146.056 279.207 145.867 279.227ZM139.194 215.486C139.164 215.489 139.134 215.492 139.104 215.495C137.515 215.681 136.097 216.543 134.999 217.965C132.493 221.213 133.319 224.887 137.247 228.026C141.997 231.823 146.719 235.532 151.723 239.453C153.892 241.157 156.083 242.878 158.318 244.635L158.723 244.955L158.403 245.35C156.52 247.638 154.699 249.84 152.924 251.996C148.809 256.971 144.927 261.68 141.09 266.425C137.993 270.267 138.043 274.113 141.242 276.725C142.781 277.981 144.502 278.485 146.237 278.153C148.002 277.818 149.759 276.639 151.318 274.726C157.959 266.592 164.843 258.1 171.785 249.481C175.434 244.957 175.078 241.747 170.537 238.029C162.862 231.743 154.712 225.145 145.644 217.848C143.439 216.087 141.213 215.275 139.194 215.486Z" fill="#9C005D" fill-opacity="0.2"/>
<path d="M98.9289 277.558C95.5175 277.915 92.6112 276.851 90.9195 274.615C89.2268 272.369 88.9888 269.227 90.2896 266.185C93.7076 258.196 97.2664 250.112 100.702 242.293C102.1 239.12 103.496 235.938 104.884 232.766C105.176 232.092 105.466 231.409 105.758 230.735C106.443 229.115 107.153 227.442 107.961 225.839C110 221.785 113.986 220.192 117.87 221.857C121.85 223.573 123.573 227.837 121.885 231.794C115.231 247.39 109.261 260.974 103.634 273.326C102.948 274.836 101.473 275.925 100.4 276.721C100.036 276.99 99.7274 277.213 99.5263 277.405L99.4074 277.518L99.2482 277.535C99.1477 277.535 99.0383 277.547 98.9289 277.558ZM114.23 222.238C112.042 222.466 110.079 223.888 108.871 226.277C108.08 227.847 107.369 229.51 106.692 231.11C106.401 231.793 106.111 232.477 105.809 233.152C104.423 236.334 103.025 239.506 101.628 242.689C98.1926 250.508 94.6337 258.592 91.2148 266.571C90.0597 269.276 90.2493 272.051 91.7208 274.009C93.1913 275.956 95.7716 276.883 98.825 276.564C98.8747 276.559 98.9244 276.553 98.9741 276.548C99.1952 276.354 99.4848 276.143 99.8121 275.908C100.802 275.181 102.156 274.185 102.736 272.907C108.353 260.566 114.323 246.982 120.979 231.396C122.44 227.965 120.937 224.261 117.483 222.772C116.388 222.294 115.284 222.127 114.23 222.238Z" fill="#9C005D" fill-opacity="0.2"/>
<path d="M119.643 446.088C108.434 447.26 97.8822 444.713 88.1416 438.482C79.3369 432.837 73.1474 424.123 69.7592 412.583C66.0034 399.834 65.6631 388.307 68.7115 377.361C73.0809 361.642 83.6475 351.056 100.1 345.897C110.196 342.73 119.211 342.311 127.644 344.596C134.836 346.549 140.341 349.965 144.494 355.061C144.517 355.089 144.551 355.126 144.584 355.152C144.551 354.743 144.509 354.346 144.479 353.957C144.335 352.293 144.214 350.847 143.934 349.419C143.34 346.424 144.618 344.23 145.791 342.659C148.579 338.929 153.168 336.76 158.043 336.844C162.908 336.928 167.212 339.143 169.838 342.91C170.406 343.726 170.775 344.662 170.861 345.488C173.274 368.28 175.658 391.086 178.041 413.882L178.707 420.247C178.72 420.377 178.724 420.507 178.716 420.719L178.716 421.111C178.718 421.322 178.587 421.507 178.403 421.576C178.209 421.647 177.993 421.599 177.857 421.452L177.495 421.068C177.28 420.839 177.1 420.657 176.938 420.452C173.736 416.464 168.802 414.566 163.739 415.377C158.764 416.169 154.742 419.434 152.96 424.125C149.287 433.81 141.718 440.463 130.452 443.882C126.787 444.979 123.184 445.718 119.643 446.088ZM111.859 344.406C108.199 344.789 104.383 345.6 100.401 346.851C84.2891 351.903 73.9493 362.255 69.675 377.632C66.6774 388.392 67.0289 399.737 70.7251 412.301C74.0951 423.763 79.9792 432.056 88.6871 437.641C101.231 445.68 115.191 447.458 130.16 442.917C141.27 439.544 148.427 433.276 152.028 423.77C153.936 418.745 158.255 415.237 163.585 414.388C168.976 413.533 174.233 415.537 177.669 419.752L177.067 413.994C174.684 391.198 172.31 368.391 169.888 345.6C169.818 344.933 169.506 344.162 169.033 343.487C166.586 339.983 162.58 337.928 158.048 337.849C153.475 337.774 149.202 339.799 146.609 343.267C145.021 345.394 144.514 347.176 144.93 349.234C145.227 350.721 145.357 352.256 145.496 353.88C145.557 354.648 145.631 355.455 145.72 356.31C145.742 356.519 145.632 356.712 145.451 356.811C145.27 356.91 145.045 356.874 144.89 356.739C144.646 356.513 144.448 356.353 144.304 356.227C144.039 356.004 143.884 355.869 143.746 355.702C139.733 350.783 134.38 347.472 127.405 345.576C122.458 344.223 117.319 343.836 111.859 344.406ZM123.647 423.6C122.234 423.748 120.782 423.799 119.29 423.764C102.735 423.323 91.8307 412.216 90.822 394.777C89.8848 378.405 100.367 366.24 116.897 364.512C117.066 364.494 117.245 364.475 117.414 364.458C135.117 362.607 146.337 375.671 148.303 389.673C149.166 395.816 148.494 401.597 146.328 406.851C142.366 416.465 134.05 422.513 123.647 423.6ZM117.011 365.505C101.038 367.175 90.923 378.91 91.8218 394.722C92.8082 411.853 103.084 422.341 119.316 422.766C131.294 423.082 141.054 416.994 145.403 406.465C147.538 401.305 148.156 395.862 147.311 389.806C145.415 376.28 134.594 363.657 117.517 365.442C117.359 365.469 117.19 365.486 117.011 365.505C117.021 365.504 117.021 365.504 117.011 365.505Z" fill="#9C005D" fill-opacity="0.2"/>
<path d="M114.228 337.925C113.263 338.026 112.299 338.127 111.304 338.231L108.191 338.556C108.012 338.575 107.843 338.502 107.738 338.362C107.633 338.222 107.613 338.033 107.677 337.876L109.028 334.537C110.634 330.569 112.177 326.768 113.752 322.983C113.992 322.395 114.737 321.825 115.344 321.761C121.635 321.063 127.931 320.405 134.445 319.724L138.772 319.272C138.971 319.251 139.172 319.351 139.262 319.533C139.361 319.713 139.334 319.937 139.199 320.092C139.011 320.313 138.86 320.5 138.726 320.664C138.477 320.972 138.271 321.215 138.043 321.44C132.757 326.366 127.46 331.293 122.141 336.193C121.664 336.635 120.927 337.184 120.163 337.274C118.205 337.499 116.247 337.714 114.228 337.925ZM108.922 337.474L111.2 337.236C114.264 336.926 117.149 336.624 120.038 336.272C120.435 336.22 120.937 335.927 121.46 335.45C126.779 330.55 132.067 325.634 137.353 320.707C137.454 320.616 137.553 320.505 137.652 320.394L134.549 320.719C128.045 321.399 121.749 322.057 115.448 322.756C115.199 322.782 114.772 323.118 114.667 323.37C113.092 327.155 111.558 330.945 109.952 334.913L108.922 337.474Z" fill="#9C005D" fill-opacity="0.2"/>
<path d="M168.918 451.937L168.908 451.938L168.131 451.999C167.96 452.007 167.792 451.934 167.698 451.803L160.688 442.552C160.536 442.346 160.556 442.063 160.749 441.882C164.323 438.562 169.945 438.196 173.841 441.026C174.036 441.166 174.103 441.421 173.996 441.643L169.342 451.661C169.247 451.812 169.087 451.919 168.918 451.937ZM168.316 450.984L168.536 450.971L172.896 441.607C169.528 439.395 164.883 439.69 161.75 442.32L168.316 450.984Z" fill="#9C005D" fill-opacity="0.2"/>
<path d="M164.35 589.055C161.018 589.403 157.52 587.969 153.508 584.799C150.625 582.516 147.76 580.212 144.896 577.917C142.481 575.978 140.066 574.028 137.642 572.1C137.51 571.993 137.233 571.941 136.821 571.844C136.584 571.788 136.296 571.728 135.965 571.642C135.517 572.161 135.066 572.661 134.636 573.158C133.586 574.374 132.59 575.513 131.541 576.639C128.203 580.195 123.922 581.859 119.791 581.195C115.915 580.575 112.754 578.029 110.876 574.013C99.6453 549.97 90.049 528.673 81.5252 508.882C79.4669 504.1 79.9441 499.143 82.794 495.628C85.5906 492.178 90.2339 490.718 95.2057 491.726C116.346 496.012 138.738 501.021 165.674 507.465C169.665 508.425 172.743 511.029 174.094 514.628C175.566 518.506 174.857 523.075 172.204 526.841C171.25 528.198 169.995 529.274 168.259 530.752C167.447 531.451 166.533 532.23 165.515 533.161C167.714 534.771 169.802 536.282 171.813 537.721C176.271 540.935 180.479 543.964 184.431 547.14C192.058 553.26 192.717 559.465 186.557 567.288C182.43 572.535 178.28 577.655 174.223 582.513C170.894 586.541 167.711 588.703 164.35 589.055ZM135.607 570.523L135.907 570.602C136.362 570.725 136.723 570.808 137.011 570.869C137.566 570.992 137.936 571.064 138.244 571.313C140.677 573.24 143.093 575.19 145.508 577.129C148.373 579.434 151.227 581.729 154.11 584.012C161.727 590.033 167.154 589.435 173.453 581.879C177.501 577.032 181.641 571.914 185.769 566.677C191.574 559.303 190.988 553.694 183.799 547.93C179.86 544.772 175.858 541.883 171.216 538.547C169.062 536.993 166.811 535.368 164.426 533.616L163.936 533.255L164.376 532.847C165.595 531.715 166.656 530.809 167.598 530.007C169.277 528.565 170.496 527.532 171.37 526.275C173.83 522.78 174.485 518.559 173.137 514.99C171.899 511.711 169.085 509.32 165.415 508.447C138.489 502.002 116.107 497.002 94.9773 492.715C90.375 491.779 86.1003 493.11 83.5442 496.263C80.9248 499.483 80.5074 504.051 82.4189 508.486C90.9308 528.259 100.527 549.556 111.757 573.589C113.481 577.29 116.381 579.641 119.919 580.206C123.713 580.815 127.672 579.255 130.775 575.945C131.805 574.841 132.802 573.702 133.843 572.497C134.336 571.922 134.848 571.336 135.378 570.738L135.607 570.523ZM162.184 571.123L135.257 547.846L122.691 561.999L98.5906 508.525L156.593 521.495L143.866 534.398L173.306 557.201L162.184 571.123ZM135.162 546.449L162.044 569.69L171.886 557.37L142.359 534.506L154.614 522.084L100.317 509.943L122.964 560.191L135.162 546.449Z" fill="#9C005D" fill-opacity="0.2"/>
<path d="M117.298 711.339C115.379 711.54 112.872 710.354 111.537 709.317C102.561 702.323 93.6085 694.974 85.2041 688.06C80.8356 684.455 80.4714 680.682 84.0811 676.162C90.6947 667.87 97.5791 659.378 105.118 650.225C108.33 646.32 112.848 645.586 116.36 648.406C119.915 651.252 120.182 655.819 117.037 659.787C113.083 664.765 109.121 669.563 104.915 674.638C103.29 676.598 101.657 678.578 100.017 680.58C101.949 682.137 103.867 683.656 105.764 685.157C111.125 689.412 116.19 693.428 121.043 697.817C122.953 699.548 124.246 703.354 123.805 705.964C123.419 708.236 120.138 710.51 118.009 711.215C117.774 711.27 117.547 711.313 117.298 711.339ZM111.11 647.718C109.26 647.911 107.43 648.967 105.877 650.849C98.3481 660.001 91.4627 668.483 84.8589 676.775C81.6323 680.822 81.9314 684.069 85.8365 687.28C94.2309 694.195 103.182 701.534 112.147 708.52C113.69 709.716 116.286 710.691 117.676 710.234C119.814 709.528 122.52 707.425 122.799 705.767C123.184 703.485 122.009 700.038 120.353 698.532C115.523 694.161 110.469 690.155 105.119 685.918C103.091 684.31 101.041 682.684 98.9768 681.02L98.5814 680.699L98.903 680.314C100.651 678.181 102.401 676.077 104.133 673.986C108.329 668.912 112.292 664.124 116.237 659.157C119.019 655.659 118.811 651.649 115.727 649.176C114.3 648.028 112.702 647.552 111.11 647.718Z" fill="#9C005D" fill-opacity="0.2"/>
<path d="M190.262 703.913C188.422 704.106 186.611 703.521 184.994 702.192C181.367 699.233 181.25 694.75 184.696 690.489C188.532 685.734 192.425 681.034 196.529 676.051C198.206 674.015 199.92 671.946 201.687 669.8C199.584 668.15 197.525 666.535 195.488 664.939C190.482 661.008 185.761 657.299 181 653.503C176.655 650.026 175.746 645.747 178.587 642.052C179.853 640.411 181.508 639.414 183.366 639.199C185.682 638.947 188.196 639.811 190.634 641.778C199.711 649.074 207.853 655.683 215.538 661.968C220.496 666.024 220.909 669.872 216.922 674.824C209.98 683.442 203.096 691.934 196.456 700.068C194.744 702.158 192.789 703.468 190.787 703.838C190.629 703.865 190.451 703.893 190.262 703.913ZM183.588 640.172C183.559 640.175 183.529 640.178 183.499 640.181C181.91 640.367 180.492 641.229 179.393 642.651C176.888 645.899 177.714 649.573 181.642 652.712C186.392 656.509 191.113 660.218 196.118 664.139C198.287 665.842 200.478 667.564 202.713 669.321L203.118 669.641L202.798 670.036C200.915 672.324 199.094 674.526 197.319 676.682C193.204 681.657 189.322 686.366 185.485 691.11C182.388 694.953 182.438 698.799 185.637 701.411C187.176 702.667 188.897 703.171 190.632 702.839C192.397 702.504 194.154 701.325 195.713 699.412C202.354 691.278 209.238 682.786 216.18 674.167C219.829 669.643 219.473 666.433 214.932 662.715C207.257 656.429 199.107 649.83 190.039 642.534C187.834 640.773 185.607 639.961 183.588 640.172Z" fill="#9C005D" fill-opacity="0.2"/>
<path d="M143.324 702.244C139.912 702.601 137.006 701.537 135.314 699.301C133.622 697.055 133.384 693.913 134.685 690.871C138.102 682.882 141.661 674.798 145.097 666.979C146.495 663.806 147.891 660.624 149.279 657.452C149.571 656.778 149.861 656.095 150.153 655.421C150.838 653.801 151.548 652.128 152.356 650.525C154.395 646.471 158.381 644.878 162.265 646.543C166.245 648.259 167.968 652.523 166.28 656.48C159.626 672.076 153.656 685.66 148.029 698.012C147.343 699.522 145.868 700.611 144.795 701.407C144.431 701.676 144.122 701.899 143.921 702.091L143.802 702.204L143.643 702.221C143.543 702.222 143.433 702.233 143.324 702.244ZM158.625 646.924C156.437 647.152 154.474 648.574 153.266 650.963C152.475 652.533 151.764 654.196 151.087 655.796C150.796 656.479 150.506 657.163 150.204 657.838C148.818 661.02 147.42 664.192 146.023 667.375C142.587 675.194 139.029 683.278 135.61 691.257C134.455 693.962 134.644 696.737 136.116 698.695C137.62 700.679 140.302 701.615 143.369 701.234C143.59 701.04 143.88 700.829 144.207 700.594C145.197 699.867 146.551 698.871 147.131 697.593C152.748 685.252 158.718 671.668 165.374 656.082C166.835 652.651 165.332 648.947 161.878 647.458C160.783 646.98 159.679 646.813 158.625 646.924Z" fill="#9C005D" fill-opacity="0.2"/>
<path d="M164.038 870.774C152.829 871.946 142.277 869.399 132.536 863.168C123.732 857.523 117.542 848.809 114.154 837.269C110.398 824.52 110.058 812.993 113.106 802.047C117.476 786.327 128.042 775.741 144.495 770.583C154.591 767.416 163.605 766.986 172.039 769.282C179.231 771.235 184.736 774.651 188.889 779.747C188.912 779.775 188.946 779.811 188.979 779.838C188.946 779.429 188.904 779.031 188.874 778.642C188.73 776.978 188.609 775.533 188.329 774.105C187.734 771.11 189.013 768.915 190.186 767.345C192.974 763.615 197.563 761.446 202.438 761.529C207.303 761.614 211.607 763.829 214.233 767.596C214.801 768.411 215.17 769.348 215.256 770.174C217.669 792.966 220.053 815.772 222.436 838.568L223.101 844.933C223.115 845.062 223.118 845.193 223.11 845.405L223.111 845.797C223.113 846.008 222.982 846.192 222.798 846.262C222.604 846.332 222.388 846.285 222.252 846.138L221.89 845.753C221.675 845.525 221.495 845.342 221.333 845.138C218.131 841.149 213.197 839.252 208.134 840.063C203.159 840.854 199.137 844.12 197.355 848.811C193.682 858.495 186.113 865.148 174.847 868.568C171.181 869.665 167.579 870.404 164.038 870.774ZM156.254 769.092C152.594 769.475 148.778 770.286 144.796 771.537C128.684 776.589 118.344 786.94 114.07 802.318C111.072 813.078 111.424 824.423 115.12 836.987C118.49 848.449 124.374 856.742 133.082 862.327C145.626 870.366 159.586 872.144 174.555 867.603C185.665 864.23 192.822 857.962 196.423 848.456C198.331 843.43 202.65 839.922 207.98 839.074C213.371 838.218 218.627 840.223 222.064 844.438L221.462 838.68C219.079 815.884 216.705 793.077 214.283 770.285C214.213 769.619 213.901 768.847 213.428 768.173C210.981 764.668 206.975 762.614 202.443 762.534C197.87 762.459 193.597 764.485 191.004 767.953C189.416 770.08 188.909 771.862 189.325 773.92C189.621 775.407 189.752 776.942 189.891 778.566C189.951 779.334 190.026 780.141 190.115 780.996C190.137 781.205 190.026 781.398 189.846 781.497C189.665 781.596 189.44 781.559 189.285 781.425C189.04 781.199 188.843 781.039 188.699 780.913C188.434 780.689 188.279 780.555 188.141 780.388C184.128 775.469 178.775 772.157 171.8 770.262C166.852 768.909 161.714 768.521 156.254 769.092ZM168.042 848.286C166.629 848.433 165.177 848.485 163.685 848.45C147.129 848.009 136.226 836.902 135.217 819.462C134.28 803.091 144.762 790.925 161.292 789.197C161.461 789.18 161.64 789.161 161.809 789.143C179.512 787.293 190.731 800.357 192.698 814.358C193.561 820.502 192.889 826.283 190.723 831.537C186.761 841.151 178.445 847.198 168.042 848.286ZM161.406 790.191C145.433 791.861 135.318 803.596 136.217 819.408C137.203 836.538 147.479 847.027 163.711 847.452C175.689 847.768 185.449 841.68 189.798 831.151C191.933 825.991 192.55 820.547 191.706 814.492C189.81 800.966 178.989 788.343 161.912 790.128C161.754 790.155 161.585 790.172 161.406 790.191C161.415 790.19 161.415 790.19 161.406 790.191Z" fill="#9C005D" fill-opacity="0.2"/>
<path d="M158.623 762.611C157.658 762.712 156.694 762.813 155.699 762.916L152.586 763.242C152.407 763.261 152.238 763.188 152.133 763.048C152.028 762.908 152.008 762.719 152.072 762.562L153.423 759.223C155.029 755.255 156.572 751.454 158.147 747.669C158.387 747.081 159.132 746.511 159.739 746.447C166.03 745.749 172.326 745.091 178.84 744.41L183.167 743.958C183.366 743.937 183.567 744.037 183.656 744.218C183.756 744.399 183.729 744.623 183.594 744.778C183.406 744.999 183.255 745.185 183.121 745.35C182.872 745.658 182.666 745.9 182.438 746.125C177.152 751.052 171.855 755.979 166.536 760.879C166.059 761.321 165.322 761.87 164.558 761.96C162.6 762.185 160.642 762.4 158.623 762.611ZM153.317 762.16L155.595 761.922C158.659 761.612 161.544 761.31 164.433 760.958C164.829 760.906 165.332 760.612 165.855 760.135C171.174 755.236 176.462 750.319 181.748 745.393C181.849 745.302 181.948 745.191 182.047 745.08L178.944 745.405C172.44 746.085 166.144 746.743 159.842 747.442C159.594 747.468 159.167 747.804 159.062 748.056C157.487 751.841 155.953 755.631 154.347 759.599L153.317 762.16Z" fill="#9C005D" fill-opacity="0.2"/>
</svg>
