<svg width="19" height="19" viewBox="0 0 19 19" fill="none" xmlns="http://www.w3.org/2000/svg">
<path d="M16.3965 8.93682C16.3991 9.92672 16.1678 10.9032 15.7215 11.7868C15.1923 12.8456 14.3788 13.7362 13.3721 14.3588C12.3653 14.9814 11.2052 15.3114 10.0215 15.3118C9.03158 15.3144 8.05507 15.0831 7.17148 14.6368L2.89648 16.0618L4.32148 11.7868C3.87518 10.9032 3.6439 9.92672 3.64648 8.93682C3.64694 7.75314 3.97694 6.59296 4.59952 5.58623C5.2221 4.57951 6.11268 3.76599 7.17148 3.23682C8.05507 2.79052 9.03158 2.55924 10.0215 2.56182H10.3965C11.9597 2.64806 13.4363 3.30789 14.5433 4.41496C15.6504 5.52204 16.3102 6.99856 16.3965 8.56182V8.93682Z" stroke="#808080" stroke-width="2" stroke-linecap="round" stroke-linejoin="round"/>
</svg>
