<svg width="14" height="17" viewBox="0 0 14 17" fill="none" xmlns="http://www.w3.org/2000/svg">
<path d="M1.52148 2.46529V14.1584C1.52148 14.546 1.67548 14.9178 1.94959 15.1919C2.2237 15.466 2.59547 15.62 2.98312 15.62H11.7529C12.1406 15.62 12.5123 15.466 12.7864 15.1919C13.0606 14.9178 13.2145 14.546 13.2145 14.1584V5.6385C13.2145 5.44378 13.1756 5.25103 13.1 5.07156C13.0245 4.8921 12.9138 4.72954 12.7746 4.59343L9.52977 1.42023C9.25671 1.15323 8.88999 1.00371 8.50809 1.00366H2.98312C2.59547 1.00366 2.2237 1.15766 1.94959 1.43176C1.67548 1.70587 1.52148 2.07765 1.52148 2.46529V2.46529Z" stroke="#808080" stroke-width="1.5" stroke-linecap="round" stroke-linejoin="round"/>
<path d="M8.83008 1.00366V3.92693C8.83008 4.31458 8.98407 4.68635 9.25818 4.96046C9.53229 5.23457 9.90406 5.38856 10.2917 5.38856H13.215" stroke="#808080" stroke-width="1.5" stroke-linejoin="round"/>
</svg>
