<svg width="44" height="42" viewBox="0 0 44 42" fill="none" xmlns="http://www.w3.org/2000/svg">
<path d="M22.3922 0.371094C10.4802 0.371094 0.823547 9.5469 0.823547 20.8659C0.823547 32.185 10.4802 41.3608 22.3922 41.3608C34.3042 41.3608 43.9608 32.1849 43.9608 20.8659C43.9608 9.54698 34.3042 0.371094 22.3922 0.371094V0.371094ZM35.61 33.4257C32.3324 36.5307 27.9556 38.3649 23.3325 38.571C18.7094 38.7771 14.1712 37.3403 10.6021 34.5406C7.03293 31.7408 4.68862 27.7787 4.02591 23.4263C3.3632 19.0738 4.42957 14.6428 7.01724 10.9967C9.6049 7.3505 13.5285 4.75038 18.0235 3.70294C22.5185 2.6555 27.2629 3.23578 31.3322 5.3307C35.4015 7.42563 38.5043 10.8851 40.0359 15.0351C41.5675 19.1851 41.4182 23.7283 39.6171 27.7794C38.6785 29.8901 37.3176 31.8077 35.61 33.4257V33.4257Z" fill="white"/>
<path d="M23.8406 13.2436L21.8425 11.3496L11.804 20.8651L21.8425 30.3805L23.8406 28.4866L17.213 22.2043H33.7647V19.5258H17.213L23.8406 13.2436V13.2436Z" fill="white"/>
</svg>
