<svg width="28" height="29" viewBox="0 0 28 29" fill="none" xmlns="http://www.w3.org/2000/svg">
<path d="M1.70251 3.4043H25.5377C26.478 3.4043 27.2402 2.64206 27.2402 1.70178C27.2402 0.761509 26.478 -0.000732422 25.5377 -0.000732422H1.70251C0.762241 -0.000732422 0 0.761509 0 1.70178C0 2.64206 0.762241 3.4043 1.70251 3.4043Z" fill="#797979"/>
<path d="M27.2402 5.10754V1.70251C27.2402 0.762242 26.478 0 25.5377 0C24.5974 0 23.8352 0.762242 23.8352 1.70251V5.10754C23.8352 6.04782 24.5974 6.81006 25.5377 6.81006C26.478 6.81006 27.2402 6.04782 27.2402 5.10754Z" fill="#797979"/>
<path d="M3.40503 5.10754V1.70251C3.40503 0.762242 2.64279 0 1.70251 0C0.762242 0 0 0.762242 0 1.70251V5.10754C0 6.04782 0.762242 6.81006 1.70251 6.81006C2.64279 6.81006 3.40503 6.04782 3.40503 5.10754Z" fill="#797979"/>
<path d="M6.81018 17.0254C6.54587 17.0254 6.2852 16.9638 6.04879 16.8456C5.81239 16.7274 5.60675 16.5558 5.44817 16.3444C5.31402 16.1655 5.21642 15.962 5.16093 15.7454C5.10544 15.5288 5.09316 15.3034 5.12478 15.0821C5.1564 14.8607 5.2313 14.6478 5.34521 14.4554C5.45912 14.263 5.60981 14.095 5.78867 13.9608L12.5987 8.85329C12.8903 8.64022 13.2421 8.52539 13.6032 8.52539C13.9643 8.52539 14.3161 8.64022 14.6077 8.85329L21.4178 13.6544C21.7848 13.9148 22.0338 14.3099 22.1104 14.7533C22.187 15.1968 22.0848 15.6525 21.8264 16.0209C21.6973 16.205 21.5331 16.3618 21.3432 16.4821C21.1532 16.6024 20.9414 16.6839 20.7198 16.7219C20.4981 16.7599 20.2712 16.7536 20.052 16.7034C19.8329 16.6532 19.6258 16.5601 19.4428 16.4295L13.6202 12.3264L7.83169 16.6849C7.53699 16.9059 7.17855 17.0254 6.81018 17.0254Z" fill="#797979"/>
<path d="M13.6201 28.9431C13.1686 28.9431 12.7355 28.7637 12.4163 28.4445C12.097 28.1252 11.9176 27.6921 11.9176 27.2406V13.6205C11.9176 13.1689 12.097 12.7359 12.4163 12.4166C12.7355 12.0973 13.1686 11.918 13.6201 11.918C14.0717 11.918 14.5047 12.0973 14.824 12.4166C15.1433 12.7359 15.3226 13.1689 15.3226 13.6205V27.2406C15.3226 27.6921 15.1433 28.1252 14.824 28.4445C14.5047 28.7637 14.0717 28.9431 13.6201 28.9431Z" fill="#797979"/>
</svg>
